<svg width="32" height="32" viewBox="0 0 32 32" xmlns="http://www.w3.org/2000/svg">
  <defs>
    <linearGradient id="gradient" x1="0%" y1="0%" x2="100%" y2="100%">
      <stop offset="0%" style="stop-color:#3b82f6;stop-opacity:1" />
      <stop offset="100%" style="stop-color:#1d4ed8;stop-opacity:1" />
    </linearGradient>
  </defs>
  
  <!-- Document background -->
  <rect x="6" y="4" width="20" height="24" rx="2" fill="white" stroke="#e5e7eb" stroke-width="1"/>
  
  <!-- Document lines representing resume content -->
  <rect x="9" y="8" width="14" height="1.5" rx="0.5" fill="#d1d5db"/>
  <rect x="9" y="11" width="10" height="1" rx="0.5" fill="#d1d5db"/>
  <rect x="9" y="13.5" width="12" height="1" rx="0.5" fill="#d1d5db"/>
  <rect x="9" y="16" width="8" height="1" rx="0.5" fill="#d1d5db"/>
  <rect x="9" y="18.5" width="11" height="1" rx="0.5" fill="#d1d5db"/>
  <rect x="9" y="21" width="9" height="1" rx="0.5" fill="#d1d5db"/>
  <rect x="9" y="23.5" width="13" height="1" rx="0.5" fill="#d1d5db"/>
  
  <!-- AI sparkle/star icon -->
  <g transform="translate(22, 6)">
    <path d="M4 0L4.9 2.1L7 3L4.9 3.9L4 6L3.1 3.9L1 3L3.1 2.1Z" fill="url(#gradient)"/>
    <circle cx="1.5" cy="1.5" r="0.5" fill="url(#gradient)" opacity="0.8"/>
    <circle cx="6.5" cy="5.5" r="0.5" fill="url(#gradient)" opacity="0.6"/>
  </g>
</svg>
