<svg width="100%" height="100%" viewBox="0 0 400 560" fill="none" xmlns="http://www.w3.org/2000/svg">
    <rect width="400" height="560" fill="#F3F4F6"/>
    <rect x="40" y="40" width="320" height="40" rx="4" fill="#D1D5DB"/>
    <rect x="100" y="90" width="200" height="10" rx="2" fill="#D1D5DB"/>
    <rect x="40" y="140" width="120" height="20" rx="4" fill="#9CA3AF"/>
    <rect x="40" y="170" width="320" height="8" rx="2" fill="#D1D5DB"/>
    <rect x="40" y="185" width="280" height="8" rx="2" fill="#D1D5DB"/>
    <rect x="40" y="225" width="120" height="20" rx="4" fill="#9CA3AF"/>
    <rect x="40" y="255" width="320" height="8" rx="2" fill="#D1D5DB"/>
    <rect x="40" y="270" width="320" height="8" rx="2" fill="#D1D5DB"/>
    <rect x="40" y="285" width="200" height="8" rx="2" fill="#D1D5DB"/>
    <rect x="40" y="325" width="120" height="20" rx="4" fill="#9CA3AF"/>
    <rect x="40" y="355" width="320" height="8" rx="2" fill="#D1D5DB"/>
    <rect x="40" y="370" width="250" height="8" rx="2" fill="#D1D5DB"/>
    <rect x="40" y="410" width="120" height="20" rx="4" fill="#9CA3AF"/>
    <rect x="40" y="440" width="80" height="20" rx="10" fill="#D1D5DB"/>
    <rect x="130" y="440" width="80" height="20" rx="10" fill="#D1D5DB"/>
    <rect x="220" y="440" width="80" height="20" rx="10" fill="#D1D5DB"/>
</svg>
