<svg width="100%" height="100%" viewBox="0 0 400 560" fill="none" xmlns="http://www.w3.org/2000/svg">
    <rect width="400" height="560" fill="#FFFFFF"/>
    <rect x="30" y="20" width="340" height="20" rx="0" fill="#2C3E50"/>
    <rect x="30" y="45" width="120" height="6" rx="0" fill="#7F8C8D"/>
    <rect x="30" y="60" width="340" height="1" rx="0" fill="#BDC3C7"/>
    <rect x="30" y="75" width="60" height="8" rx="0" fill="#2C3E50"/>
    <rect x="30" y="90" width="340" height="4" rx="0" fill="#ECF0F1"/>
    <rect x="30" y="100" width="300" height="4" rx="0" fill="#ECF0F1"/>
    <rect x="30" y="110" width="250" height="4" rx="0" fill="#ECF0F1"/>
    <rect x="30" y="125" width="60" height="8" rx="0" fill="#2C3E50"/>
    <rect x="30" y="140" width="340" height="4" rx="0" fill="#ECF0F1"/>
    <rect x="30" y="150" width="280" height="4" rx="0" fill="#ECF0F1"/>
    <rect x="30" y="165" width="60" height="8" rx="0" fill="#2C3E50"/>
    <rect x="30" y="180" width="160" height="4" rx="0" fill="#ECF0F1"/>
    <rect x="200" y="180" width="140" height="4" rx="0" fill="#ECF0F1"/>
    <rect x="30" y="200" width="100" height="15" rx="0" fill="#F8F9FA"/>
    <rect x="140" y="200" width="100" height="15" rx="0" fill="#F8F9FA"/>
    <rect x="250" y="200" width="90" height="15" rx="0" fill="#F8F9FA"/>
</svg>
