<svg width="100%" height="100%" viewBox="0 0 400 560" fill="none" xmlns="http://www.w3.org/2000/svg">
    <rect width="400" height="560" fill="#F9FAFB"/>
    <rect x="40" y="40" width="320" height="35" rx="0" fill="#1F2937"/>
    <rect x="50" y="50" width="2" height="15" rx="1" fill="#D1D5DB"/>
    <rect x="60" y="50" width="150" height="15" rx="0" fill="#D1D5DB"/>
    <rect x="40" y="100" width="100" height="12" rx="0" fill="#6B7280"/>
    <rect x="40" y="125" width="320" height="8" rx="0" fill="#E5E7EB"/>
    <rect x="40" y="140" width="280" height="8" rx="0" fill="#E5E7EB"/>
    <rect x="40" y="155" width="200" height="8" rx="0" fill="#E5E7EB"/>
    <rect x="40" y="185" width="100" height="12" rx="0" fill="#6B7280"/>
    <rect x="40" y="210" width="320" height="8" rx="0" fill="#E5E7EB"/>
    <rect x="40" y="225" width="250" height="8" rx="0" fill="#E5E7EB"/>
    <rect x="40" y="255" width="100" height="12" rx="0" fill="#6B7280"/>
    <rect x="40" y="280" width="150" height="15" rx="0" fill="#F3F4F6"/>
    <rect x="200" y="280" width="120" height="15" rx="0" fill="#F3F4F6"/>
</svg>
