<svg width="100%" height="100%" viewBox="0 0 400 560" fill="none" xmlns="http://www.w3.org/2000/svg">
    <rect width="400" height="560" fill="#FFFFFF"/>
    <rect x="50" y="50" width="300" height="30" rx="0" fill="#374151"/>
    <rect x="50" y="90" width="150" height="8" rx="0" fill="#9CA3AF"/>
    <rect x="50" y="110" width="300" height="1" rx="0" fill="#E5E7EB"/>
    <rect x="50" y="140" width="80" height="12" rx="0" fill="#374151"/>
    <rect x="50" y="165" width="300" height="6" rx="0" fill="#D1D5DB"/>
    <rect x="50" y="180" width="250" height="6" rx="0" fill="#D1D5DB"/>
    <rect x="50" y="210" width="80" height="12" rx="0" fill="#374151"/>
    <rect x="50" y="235" width="300" height="6" rx="0" fill="#D1D5DB"/>
    <rect x="50" y="250" width="200" height="6" rx="0" fill="#D1D5DB"/>
    <rect x="50" y="280" width="80" height="12" rx="0" fill="#374151"/>
    <rect x="50" y="305" width="100" height="6" rx="0" fill="#D1D5DB"/>
    <rect x="160" y="305" width="100" height="6" rx="0" fill="#D1D5DB"/>
</svg>
