<svg width="100%" height="100%" viewBox="0 0 400 560" fill="none" xmlns="http://www.w3.org/2000/svg">
    <rect width="400" height="560" fill="#F9FAFB"/>
    <rect width="133" height="560" fill="#E5E7EB"/>
    <rect x="20" y="40" width="93" height="30" rx="4" fill="#9CA3AF"/>
    <rect x="20" y="90" width="60" height="15" rx="4" fill="#9CA3AF"/>
    <rect x="20" y="115" width="93" height="8" rx="2" fill="#D1D5DB"/>
    <rect x="20" y="130" width="80" height="8" rx="2" fill="#D1D5DB"/>
    <rect x="20" y="165" width="60" height="15" rx="4" fill="#9CA3AF"/>
    <rect x="20" y="190" width="93" height="8" rx="2" fill="#D1D5DB"/>
    <rect x="20" y="205" width="70" height="8" rx="2" fill="#D1D5DB"/>
    <rect x="153" y="40" width="120" height="20" rx="4" fill="#9CA3AF"/>
    <rect x="153" y="70" width="227" height="8" rx="2" fill="#D1D5DB"/>
    <rect x="153" y="85" width="180" height="8" rx="2" fill="#D1D5DB"/>
    <rect x="153" y="125" width="120" height="20" rx="4" fill="#9CA3AF"/>
    <rect x="153" y="155" width="227" height="8" rx="2" fill="#D1D5DB"/>
    <rect x="153" y="170" width="200" height="8" rx="2" fill="#D1D5DB"/>
</svg>
