<svg width="100%" height="100%" viewBox="0 0 400 560" fill="none" xmlns="http://www.w3.org/2000/svg">
    <defs>
        <linearGradient id="modernExecGrad" x1="0%" y1="0%" x2="100%" y2="100%">
            <stop offset="0%" style="stop-color:#1A365D;stop-opacity:1" />
            <stop offset="100%" style="stop-color:#2C5AA0;stop-opacity:1" />
        </linearGradient>
    </defs>
    <rect width="400" height="560" fill="#FFFFFF"/>
    <rect width="400" height="140" fill="url(#modernExecGrad)"/>
    <circle cx="320" cy="70" r="25" fill="rgba(255,255,255,0.1)"/>
    <circle cx="100" cy="120" r="15" fill="rgba(255,255,255,0.05)"/>
    <rect x="40" y="40" width="200" height="25" rx="0" fill="#FFFFFF"/>
    <rect x="40" y="75" width="120" height="10" rx="0" fill="rgba(255,255,255,0.9)"/>
    <rect x="40" y="100" width="200" height="8" rx="0" fill="rgba(255,255,255,0.8)"/>
    <rect x="40" y="170" width="320" height="25" rx="12" fill="#F8FAFC"/>
    <rect x="40" y="210" width="80" height="12" rx="0" fill="#1A365D"/>
    <rect x="40" y="235" width="320" height="6" rx="0" fill="#E2E8F0"/>
    <rect x="40" y="250" width="280" height="6" rx="0" fill="#E2E8F0"/>
    <rect x="40" y="275" width="80" height="12" rx="0" fill="#1A365D"/>
    <rect x="40" y="300" width="150" height="20" rx="10" fill="#EDF2F7"/>
    <rect x="200" y="300" width="120" height="20" rx="10" fill="#EDF2F7"/>
</svg>
