<svg width="100%" height="100%" viewBox="0 0 400 560" fill="none" xmlns="http://www.w3.org/2000/svg">
    <rect width="400" height="560" fill="#0F172A"/>
    <rect x="20" y="20" width="360" height="30" rx="4" fill="#1E293B"/>
    <rect x="30" y="30" width="8" height="8" rx="1" fill="#10B981"/>
    <rect x="45" y="30" width="150" height="8" rx="1" fill="#F1F5F9"/>
    <rect x="20" y="70" width="100" height="10" rx="2" fill="#10B981"/>
    <rect x="20" y="90" width="360" height="6" rx="1" fill="#475569"/>
    <rect x="20" y="105" width="300" height="6" rx="1" fill="#475569"/>
    <rect x="20" y="135" width="100" height="10" rx="2" fill="#10B981"/>
    <rect x="20" y="155" width="80" height="15" rx="2" fill="#1E293B"/>
    <rect x="110" y="155" width="80" height="15" rx="2" fill="#1E293B"/>
    <rect x="200" y="155" width="80" height="15" rx="2" fill="#1E293B"/>
    <rect x="20" y="185" width="100" height="10" rx="2" fill="#10B981"/>
    <rect x="20" y="205" width="360" height="6" rx="1" fill="#475569"/>
    <rect x="20" y="220" width="250" height="6" rx="1" fill="#475569"/>
</svg>
