<svg width="100%" height="100%" viewBox="0 0 400 560" fill="none" xmlns="http://www.w3.org/2000/svg">
    <rect width="400" height="560" fill="#FEFEFE"/>
    <rect width="140" height="560" fill="#F1F5F9"/>
    <rect x="20" y="30" width="100" height="20" rx="4" fill="#64748B"/>
    <rect x="20" y="60" width="80" height="8" rx="2" fill="#94A3B8"/>
    <rect x="20" y="85" width="60" height="12" rx="4" fill="#64748B"/>
    <rect x="20" y="105" width="100" height="6" rx="2" fill="#CBD5E1"/>
    <rect x="20" y="120" width="80" height="6" rx="2" fill="#CBD5E1"/>
    <rect x="20" y="145" width="60" height="12" rx="4" fill="#64748B"/>
    <rect x="20" y="165" width="100" height="6" rx="2" fill="#CBD5E1"/>
    <rect x="160" y="30" width="200" height="25" rx="4" fill="#374151"/>
    <rect x="160" y="65" width="120" height="8" rx="2" fill="#6B7280"/>
    <rect x="160" y="85" width="200" height="6" rx="2" fill="#9CA3AF"/>
    <rect x="160" y="100" width="180" height="6" rx="2" fill="#9CA3AF"/>
    <rect x="160" y="125" width="80" height="12" rx="4" fill="#374151"/>
    <rect x="160" y="145" width="200" height="6" rx="2" fill="#9CA3AF"/>
    <rect x="160" y="160" width="150" height="6" rx="2" fill="#9CA3AF"/>
</svg>
